<?xml version="1.0" encoding="utf-8"?>
<!-- Svg Vector Icons : http://www.onlinewebfonts.com/icon -->
<!DOCTYPE svg PUBLIC "-//W3C//DTD SVG 1.1//EN" "http://www.w3.org/Graphics/SVG/1.1/DTD/svg11.dtd">
<svg version="1.1" xmlns="http://www.w3.org/2000/svg" xmlns:xlink="http://www.w3.org/1999/xlink" x="0px" y="0px" viewBox="0 0 1000 1000" enable-background="new 0 0 1000 1000" xml:space="preserve">
<metadata> Svg Vector Icons : http://www.onlinewebfonts.com/icon </metadata>
<g><g transform="translate(0.000000,511.000000) scale(0.100000,-0.100000)"><path d="M4634.5,4760.9c-196.5-147.4-1151.4-858.6-2123.9-1583.6L744.3,1860.8l2129.8-5.9c1171-2,3082.8-2,4249.8,0l2122,5.9l-2096.4,1562c-1153.3,858.6-2110.2,1571.8-2127.9,1583.6C4996.1,5024.1,4925.3,4980.9,4634.5,4760.9z M6316.4,3391.4c719.1-536.4,1320.3-986.3,1336.1-1002c23.6-23.6-341.9-27.5-2662.3-27.5c-1477.5,0-2681.9,5.9-2676,13.8c43.2,41.3,2660.3,1988.4,2676,1988.4C5002,4364,5597.3,3927.8,6316.4,3391.4z"/><path d="M677.5-1646.3V-4790H5000h4322.5l-3.9,3137.8l-5.9,3139.7l-4316.6,5.9l-4318.6,3.9V-1646.3z M4823.2,825.4c0-102.2-5.9-112-363.5-630.7c-200.4-288.8-363.5-528.6-363.5-534.4s163.1-9.8,363.5-9.8h363.5v-147.4v-147.4h-609.1H3605v90.4c0,82.5,21.6,119.8,373.3,626.8c206.3,296.7,373.3,542.3,373.3,548.2c0,7.9-149.3,11.8-334,11.8h-334v147.4v147.4h569.8h569.8V825.4z M5412.6,141.6v-785.9h-176.8h-176.8v785.9v785.9h176.8h176.8V141.6z M6567.9,870.6c194.5-88.4,294.7-265.2,273.1-489.2c-25.5-286.9-224-446-583.5-469.6L6080.6-100v-271.1v-273.1h-176.8H5727v774.1v776.1l64.8,7.9c33.4,5.9,200.4,7.9,367.4,5.9C6434.3,917.7,6473.6,911.8,6567.9,870.6z M2483.1-722.9l1102.3-793.8l-153.2-159.2c-86.5-86.4-587.5-607.1-1116-1159.2c-526.6-550.1-964.7-1004-974.5-1007.9c-7.9-3.9-15.7,882.2-15.7,1970.7c0,1646.5,3.9,1974.6,25.5,1960.8C1367.1,80.7,1876-284.7,2483.1-722.9z M8650.6-2856.6l-5.9-996.2l-1116,1165.1c-813.4,848.8-1110.1,1171-1094.4,1186.7c11.8,11.8,514.8,375.3,1116,809.5L8644.7,96.4l5.9-978.5C8652.5-1418.4,8652.5-2308.5,8650.6-2856.6z M7224.1-2937.2l1145.5-1194.6l-1695.6-5.9c-933.3-2-2452.1-2-3375.5,0l-1677.9,5.9l1143.5,1194.6l1143.5,1192.6h1084.6h1086.5L7224.1-2937.2z"/><path d="M6125.8,658.4c-43.2-7.9-45.2-15.7-45.2-243.6V180.9h98.2c186.7,0,292.8,76.6,308.5,224c11.8,98.2-19.6,165-98.2,216.1C6341.9,652.5,6194.6,674.1,6125.8,658.4z"/></g></g>
</svg>